<svg width="26" height="26" viewBox="0 0 26 26" fill="none" xmlns="http://www.w3.org/2000/svg">
<path d="M8.89073 1.81836H15.7894L8.62818 23.0368C8.55457 23.2549 8.4144 23.4444 8.22742 23.5786C8.04044 23.7129 7.81606 23.7851 7.58588 23.7851H2.21715C2.04277 23.7851 1.87089 23.7436 1.71574 23.664C1.56058 23.5844 1.42661 23.469 1.32491 23.3273C1.2232 23.1857 1.15669 23.0218 1.13088 22.8494C1.10506 22.6769 1.12068 22.5008 1.17645 22.3356L7.84843 2.56663C7.92203 2.34853 8.06219 2.15902 8.24918 2.02478C8.43616 1.89055 8.66055 1.81835 8.89073 1.81836Z" fill="url(#paint0_linear_4650_36416)"/>
<path d="M18.9086 16.0527H7.96907C7.86739 16.0527 7.76807 16.0833 7.68401 16.1405C7.59996 16.1977 7.53507 16.2789 7.49779 16.3735C7.46051 16.4681 7.45257 16.5717 7.475 16.6709C7.49742 16.7701 7.54918 16.8602 7.62353 16.9295L14.6531 23.4903C14.8577 23.6813 15.1272 23.7875 15.4071 23.7875H21.6012L18.9086 16.0527Z" fill="#0078D4"/>
<path d="M8.88923 1.81837C8.65656 1.8175 8.42972 1.89103 8.24181 2.02823C8.0539 2.16543 7.91477 2.35911 7.84474 2.58099L1.18322 22.3176C1.12372 22.4835 1.10504 22.6612 1.12876 22.8358C1.15248 23.0103 1.21789 23.1766 1.31947 23.3206C1.42105 23.4645 1.5558 23.5819 1.71233 23.6628C1.86886 23.7436 2.04256 23.7856 2.21874 23.7851H7.72607C7.93125 23.7485 8.12301 23.658 8.28177 23.523C8.44053 23.3879 8.56059 23.2131 8.62968 23.0165L9.95784 19.1018L14.703 23.5274C14.9019 23.692 15.1513 23.783 15.4094 23.7851H21.5806L18.8738 16.0503L10.9836 16.0521L15.813 1.81837H8.88923Z" fill="url(#paint1_linear_4650_36416)"/>
<path d="M17.691 2.56544C17.6175 2.3477 17.4776 2.15849 17.2909 2.02447C17.1042 1.89045 16.8802 1.81836 16.6504 1.81836H8.96204C9.19186 1.81836 9.41589 1.89044 9.60258 2.02446C9.78928 2.15848 9.92924 2.34769 10.0027 2.56544L16.6751 22.3355C16.7309 22.5007 16.7465 22.6768 16.7207 22.8493C16.6949 23.0218 16.6284 23.1856 16.5267 23.3273C16.425 23.4689 16.291 23.5843 16.1358 23.6639C15.9807 23.7436 15.8088 23.7851 15.6344 23.7851H23.3228C23.4972 23.7851 23.669 23.7435 23.8242 23.6639C23.9793 23.5843 24.1133 23.4689 24.215 23.3272C24.3167 23.1856 24.3832 23.0217 24.409 22.8493C24.4348 22.6768 24.4192 22.5007 24.3634 22.3355L17.691 2.56544Z" fill="url(#paint2_linear_4650_36416)"/>
<defs>
<linearGradient id="paint0_linear_4650_36416" x1="11.4052" y1="3.44613" x2="4.24078" y2="24.6115" gradientUnits="userSpaceOnUse">
<stop stop-color="#114A8B"/>
<stop offset="1" stop-color="#0669BC"/>
</linearGradient>
<linearGradient id="paint1_linear_4650_36416" x1="13.6417" y1="13.3097" x2="11.9843" y2="13.87" gradientUnits="userSpaceOnUse">
<stop stop-opacity="0.3"/>
<stop offset="0.071" stop-opacity="0.2"/>
<stop offset="0.321" stop-opacity="0.1"/>
<stop offset="0.623" stop-opacity="0.05"/>
<stop offset="1" stop-opacity="0"/>
</linearGradient>
<linearGradient id="paint2_linear_4650_36416" x1="12.7207" y1="2.82868" x2="20.585" y2="23.7809" gradientUnits="userSpaceOnUse">
<stop stop-color="#3CCBF4"/>
<stop offset="1" stop-color="#2892DF"/>
</linearGradient>
</defs>
</svg>
